<svg width="436" height="450" viewBox="0 0 436 450" fill="none" xmlns="http://www.w3.org/2000/svg">
<path d="M361.48 3.37995C357.448 6.98135 353.322 10.373 349.266 13.9511C345.21 17.5291 341.107 20.8625 336.946 24.289C332.65 27.8555 328.341 31.3908 324.021 34.8951C323.881 35 323.765 35.1166 323.636 35.2331L312.145 44.5571L311.573 44.9884L311.061 44.5105C307.448 41.1616 303.85 37.8011 300.268 34.4289L299.895 34.0793C295.828 30.2797 291.737 26.4569 287.739 22.5641C283.881 18.8928 280.023 15.1515 276.189 11.4103C272.354 7.669 268.532 3.88112 264.755 0C268.8 3.34499 272.762 6.85315 276.748 10.2797C280.734 13.7063 284.709 17.2727 288.66 20.7692C293.05 24.6542 297.44 28.6208 301.83 32.669L311.678 41.6667C315.175 38.9044 318.671 36.1189 322.168 33.3916C326.83 29.7203 331.492 26.0606 336.154 22.4476C340.334 19.2152 344.534 16.0062 348.753 12.8205C353.019 9.65035 357.215 6.43357 361.48 3.37995Z" fill="white"/>
<path d="M301.923 34.0676C301.887 34.1015 301.848 34.1327 301.807 34.1609C301.282 34.5804 300.758 35 300.233 35.3963C297.739 37.366 295.187 39.2308 292.588 41.049C289.429 43.2867 286.201 45.4313 282.949 47.5525C279.697 49.6737 276.422 51.7017 273.077 53.683C269.732 55.6644 266.364 57.5874 262.879 59.3357C265.909 56.8765 269.044 54.5805 272.203 52.3427C275.361 50.1049 278.613 47.9604 281.842 45.8392C285.07 43.718 288.392 41.6784 291.737 39.697C294.394 38.1236 297.098 36.5735 299.895 35.1282C300.525 34.7902 301.166 34.4639 301.818 34.1376L301.923 34.0676Z" fill="white"/>
<path d="M359.149 62.7506C355.804 60.7576 352.564 58.5898 349.382 56.387C346.201 54.1842 343.065 51.8881 339.953 49.5804C336.842 47.2727 333.788 44.8602 330.793 42.4009C328.345 40.4079 325.933 38.38 323.602 36.2471L322.098 34.8835C322.066 34.8456 322.031 34.8105 321.993 34.7786L322.133 34.8485L323.986 36.014C326.632 37.6574 329.196 39.3823 331.76 41.1539C334.953 43.3217 338.065 45.6527 341.177 47.9837C344.289 50.3147 347.331 52.6457 350.326 55.1515C353.322 57.6574 356.305 60.0699 359.149 62.7506Z" fill="white"/>
<path d="M366.306 119.767H366.212L364.86 120.326C362.704 121.201 360.536 121.993 358.357 122.751C355.688 123.683 352.995 124.545 350.291 125.385C347.588 126.224 344.872 126.981 342.133 127.716C339.394 128.45 336.632 129.114 333.846 129.639C336.457 128.473 339.114 127.541 341.783 126.608C344.452 125.676 347.156 124.825 349.86 123.986C352.564 123.147 355.28 122.378 358.019 121.655C360.198 121.072 362.401 120.49 364.627 120.07L366.177 119.767H366.306Z" fill="white"/>
<path d="M400.699 151.387C398.753 149.312 396.912 147.145 395.128 144.953C393.345 142.762 391.632 140.536 389.872 138.287C388.112 136.037 386.504 133.741 384.895 131.41C383.578 129.522 382.284 127.611 381.072 125.653C380.816 125.222 380.56 124.814 380.303 124.394C380.286 124.361 380.267 124.33 380.245 124.301L380.326 124.382L381.399 125.548C382.926 127.226 384.382 128.963 385.828 130.711C387.623 132.902 389.324 135.14 391.061 137.389C392.797 139.639 394.441 141.935 396.049 144.266C397.657 146.597 399.243 148.939 400.699 151.387Z" fill="white"/>
<path d="M433.811 245.525H301.865C301.865 245.525 314.942 209.79 335.07 209.79C355.198 209.79 361.55 234.476 361.55 234.476C361.55 234.476 375.093 221.049 386.247 221.049C397.401 221.049 407.098 238.753 407.098 238.753C407.098 238.753 422.867 229.266 433.811 245.525Z" fill="#F2F2F2"/>
<path d="M359.965 59.5921H298.368C298.368 59.5921 312.133 39.6271 322.995 39.6271C333.858 39.6271 337.051 52.9371 337.051 52.9371C337.051 52.9371 344.709 46.725 351.807 47.8322C358.905 48.9394 359.965 59.5921 359.965 59.5921Z" fill="#F2F2F2"/>
<path d="M257.576 143.089H195.897C195.897 143.089 209.674 123.124 220.525 123.124C231.375 123.124 234.58 136.434 234.58 136.434C234.58 136.434 242.238 130.221 249.336 131.329C256.434 132.436 257.576 143.089 257.576 143.089Z" fill="#F2F2F2"/>
<path d="M61.6317 229.744H0C0 229.744 13.7762 209.79 24.627 209.79C35.4779 209.79 38.6946 223.1 38.6946 223.1C38.6946 223.1 46.352 216.888 53.4499 217.995C60.5478 219.103 61.6317 229.744 61.6317 229.744Z" fill="#F2F2F2"/>
<path d="M111.888 72.2611H38.4615C38.4615 72.2611 48.5154 49.3014 59.2675 47.865C70.0197 46.4287 75.1642 64.9262 75.1642 64.9262C75.1642 64.9262 82.0971 58.3642 87.5551 58.3642C93.0131 58.3642 97.2171 66.9823 97.2171 66.9823C97.2171 66.9823 108.147 61.0984 111.888 72.2611Z" fill="#F2F2F2"/>
<ellipse cx="239.613" cy="437.912" rx="196.387" ry="11.655" fill="#F6F6F6"/>
<path opacity="0.9" d="M247.349 166.9H232.94V438.264H247.349V166.9Z" fill="#324F7E"/>
<path d="M232.995 166.327H247.284V180.616L232.995 175.359V166.327Z" fill="#324F7E"/>
<path d="M232.995 166.327H247.284V180.616L232.995 175.359V166.327Z" fill="#324F7E"/>
<path d="M217.576 119.847C217.66 115.304 216.837 110.789 215.157 106.568C213.476 102.346 210.971 98.502 207.788 95.2595C204.605 92.017 200.808 89.4415 196.618 87.6833C192.428 85.9251 187.93 85.0196 183.386 85.0196C178.842 85.0196 174.344 85.9251 170.154 87.6833C165.964 89.4415 162.167 92.017 158.984 95.2595C155.8 98.502 153.295 102.346 151.615 106.568C149.934 110.789 149.112 115.304 149.196 119.847V166.327H217.576V119.847Z" fill="#324F7E"/>
<path opacity="0.3" d="M217.576 119.847C217.66 115.304 216.837 110.789 215.157 106.568C213.476 102.346 210.971 98.502 207.788 95.2595C204.605 92.017 200.808 89.4415 196.618 87.6833C192.428 85.9251 187.93 85.0196 183.386 85.0196C178.842 85.0196 174.344 85.9251 170.154 87.6833C165.964 89.4415 162.167 92.017 158.984 95.2595C155.8 98.502 153.295 102.346 151.615 106.568C149.934 110.789 149.112 115.304 149.196 119.847V166.327H217.576V119.847Z" fill="#424242"/>
<path d="M142.716 186.269C138.147 205.15 149.709 220.453 168.636 220.453C187.564 220.453 206.527 205.15 211.096 186.269L215.851 166.607C215.916 166.342 215.921 166.065 215.863 165.798C215.806 165.532 215.689 165.281 215.52 165.067C215.352 164.852 215.136 164.679 214.891 164.56C214.645 164.441 214.375 164.38 214.103 164.38H149.429C149.024 164.382 148.632 164.52 148.315 164.772C147.998 165.023 147.775 165.374 147.681 165.767L142.716 186.269Z" fill="#324F7E"/>
<path opacity="0.4" d="M142.716 186.269C138.147 205.15 149.709 220.453 168.636 220.453C187.564 220.453 206.527 205.15 211.096 186.269L215.851 166.607C215.916 166.342 215.921 166.065 215.863 165.798C215.806 165.532 215.689 165.281 215.52 165.067C215.352 164.852 215.136 164.679 214.891 164.56C214.645 164.441 214.375 164.38 214.103 164.38H149.429C149.024 164.382 148.632 164.52 148.315 164.772C147.998 165.023 147.775 165.374 147.681 165.767L142.716 186.269Z" fill="white"/>
<path d="M139.965 186.269C135.396 205.15 146.958 220.453 165.886 220.453C184.814 220.453 203.776 205.15 208.345 186.269L213.147 166.607C213.212 166.342 213.217 166.065 213.159 165.798C213.102 165.532 212.985 165.281 212.816 165.067C212.648 164.852 212.432 164.679 212.187 164.56C211.941 164.441 211.672 164.38 211.399 164.38H146.713C146.309 164.382 145.916 164.52 145.599 164.772C145.282 165.023 145.059 165.374 144.965 165.767L139.965 186.269Z" fill="#324F7E"/>
<path opacity="0.5" d="M139.965 186.269C135.396 205.15 146.958 220.453 165.886 220.453C184.814 220.453 203.776 205.15 208.345 186.269L213.147 166.607C213.212 166.342 213.217 166.065 213.159 165.798C213.102 165.532 212.985 165.281 212.816 165.067C212.648 164.852 212.432 164.679 212.187 164.56C211.941 164.441 211.672 164.38 211.399 164.38H146.713C146.309 164.382 145.916 164.52 145.599 164.772C145.282 165.023 145.059 165.374 144.965 165.767L139.965 186.269Z" fill="white"/>
<path d="M298.042 119.835V166.327H217.622V119.835C217.619 110.77 214.017 102.077 207.607 95.6666C201.197 89.2565 192.504 85.6539 183.438 85.6508H263.916C272.981 85.6539 281.674 89.2565 288.085 95.6666C294.495 102.077 298.097 110.77 298.1 119.835H298.042Z" fill="#324F7E"/>
<path opacity="0.7" d="M298.042 119.835V166.327H217.622V119.835C217.619 110.77 214.017 102.077 207.607 95.6666C201.197 89.2565 192.504 85.6539 183.438 85.6508H263.916C272.981 85.6539 281.674 89.2565 288.085 95.6666C294.495 102.077 298.097 110.77 298.1 119.835H298.042Z" fill="white"/>
<path d="M298.042 119.835V132.271H217.622V119.835C217.638 112.233 215.102 104.845 210.42 98.856H290.897C295.559 104.853 298.074 112.24 298.042 119.835Z" fill="#324F7E"/>
<path opacity="0.9" d="M298.042 119.835V132.271H217.622V119.835C217.638 112.233 215.102 104.845 210.42 98.856H290.897C295.559 104.853 298.074 112.24 298.042 119.835Z" fill="white"/>
<path d="M228.776 138.262V69.497C228.775 68.8839 228.907 68.2779 229.164 67.7211C229.42 67.1644 229.795 66.6702 230.262 66.273C230.729 65.8759 231.277 65.5853 231.868 65.4215C232.459 65.2577 233.078 65.2246 233.683 65.3245L250.163 68.0518C250.754 68.1488 251.291 68.4531 251.678 68.9102C252.064 69.3673 252.275 69.9473 252.273 70.5459V74.8117C252.273 75.4824 252.006 76.1257 251.532 76.6C251.058 77.0743 250.414 77.3408 249.744 77.3408H234.021V138.238C234.021 138.934 233.745 139.601 233.253 140.093C232.761 140.584 232.094 140.861 231.399 140.861C230.707 140.861 230.044 140.588 229.553 140.101C229.061 139.614 228.782 138.953 228.776 138.262Z" fill="#324F7E"/>
<path opacity="0.3" d="M228.776 138.262V69.497C228.775 68.8839 228.907 68.2779 229.164 67.7211C229.42 67.1644 229.795 66.6702 230.262 66.273C230.729 65.8759 231.277 65.5853 231.868 65.4215C232.459 65.2577 233.078 65.2246 233.683 65.3245L250.163 68.0518C250.754 68.1488 251.291 68.4531 251.678 68.9102C252.064 69.3673 252.275 69.9473 252.273 70.5459V74.8117C252.273 75.4824 252.006 76.1257 251.532 76.6C251.058 77.0743 250.414 77.3408 249.744 77.3408H234.021V138.238C234.021 138.934 233.745 139.601 233.253 140.093C232.761 140.584 232.094 140.861 231.399 140.861C230.707 140.861 230.044 140.588 229.553 140.101C229.061 139.614 228.782 138.953 228.776 138.262Z" fill="#424242"/>
<path d="M183.38 94.7301V128.903C183.377 129.793 183.023 130.646 182.394 131.277C181.766 131.908 180.914 132.265 180.023 132.271H114.953C114.063 132.265 113.211 131.908 112.583 131.277C111.954 130.646 111.6 129.793 111.597 128.903V94.7301C111.6 93.8397 111.954 92.9865 112.583 92.3558C113.211 91.7251 114.063 91.3679 114.953 91.3618H180.023C180.914 91.3679 181.766 91.7251 182.394 92.3558C183.023 92.9865 183.377 93.8397 183.38 94.7301Z" fill="#324F7E"/>
<path opacity="0.8" d="M183.38 94.7301V128.903C183.377 129.793 183.023 130.646 182.394 131.277C181.766 131.908 180.914 132.265 180.023 132.271H114.953C114.063 132.265 113.211 131.908 112.583 131.277C111.954 130.646 111.6 129.793 111.597 128.903V94.7301C111.6 93.8397 111.954 92.9865 112.583 92.3558C113.211 91.7251 114.063 91.3679 114.953 91.3618H180.023C180.914 91.3679 181.766 91.7251 182.394 92.3558C183.023 92.9865 183.377 93.8397 183.38 94.7301Z" fill="white"/>
<path d="M182.308 92.2709L156.037 113.355C153.602 115.306 150.574 116.369 147.453 116.369C144.333 116.369 141.305 115.306 138.87 113.355L112.634 92.2709C113.266 91.6798 114.1 91.3543 114.965 91.3618H180.035C180.88 91.3691 181.691 91.6936 182.308 92.2709Z" fill="#324F7E"/>
<path opacity="0.6" d="M182.308 92.2709L156.037 113.355C153.602 115.306 150.574 116.369 147.453 116.369C144.333 116.369 141.305 115.306 138.87 113.355L112.634 92.2709C113.266 91.6798 114.1 91.3543 114.965 91.3618H180.035C180.88 91.3691 181.691 91.6936 182.308 92.2709Z" fill="white"/>
<path d="M133.52 146.047V180.231C133.52 181.123 133.167 181.978 132.537 182.609C131.908 183.24 131.054 183.596 130.163 183.6H65.1282C64.2378 183.593 63.3859 183.236 62.7574 182.606C62.1289 181.975 61.7746 181.122 61.7715 180.231V146.047C61.7715 145.157 62.1252 144.303 62.7547 143.674C63.3842 143.044 64.238 142.69 65.1282 142.69H130.163C131.053 142.69 131.907 143.044 132.537 143.674C133.166 144.303 133.52 145.157 133.52 146.047Z" fill="#324F7E"/>
<path opacity="0.8" d="M133.52 146.047V180.231C133.52 181.123 133.167 181.978 132.537 182.609C131.908 183.24 131.054 183.596 130.163 183.6H65.1282C64.2378 183.593 63.3859 183.236 62.7574 182.606C62.1289 181.975 61.7746 181.122 61.7715 180.231V146.047C61.7715 145.157 62.1252 144.303 62.7547 143.674C63.3842 143.044 64.238 142.69 65.1282 142.69H130.163C131.053 142.69 131.907 143.044 132.537 143.674C133.166 144.303 133.52 145.157 133.52 146.047Z" fill="white"/>
<path d="M132.448 143.588L106.212 164.672C103.779 166.629 100.751 167.696 97.6283 167.696C94.5059 167.696 91.4773 166.629 89.0444 164.672L62.7973 143.588C63.4299 143 64.2648 142.679 65.1283 142.691H130.163C131.011 142.687 131.829 143.008 132.448 143.588Z" fill="#324F7E"/>
<path opacity="0.6" d="M132.448 143.588L106.212 164.672C103.779 166.629 100.751 167.696 97.6283 167.696C94.5059 167.696 91.4773 166.629 89.0444 164.672L62.7973 143.588C63.4299 143 64.2648 142.679 65.1283 142.691H130.163C131.011 142.687 131.829 143.008 132.448 143.588Z" fill="white"/>
<path d="M217.576 120.429V161.339H193.263C192.371 161.335 191.516 160.98 190.885 160.349C190.254 159.718 189.898 158.863 189.895 157.97V123.798C189.901 122.906 190.258 122.053 190.888 121.423C191.519 120.792 192.372 120.436 193.263 120.429H217.576Z" fill="#324F7E"/>
<path opacity="0.8" d="M217.576 120.429V161.339H193.263C192.371 161.335 191.516 160.98 190.885 160.349C190.254 159.718 189.898 158.863 189.895 157.97V123.798C189.901 122.906 190.258 122.053 190.888 121.423C191.519 120.792 192.372 120.436 193.263 120.429H217.576Z" fill="white"/>
<path d="M217.576 120.429V142.69C217.451 142.608 217.33 142.518 217.215 142.422L191.002 121.338C191.631 120.743 192.468 120.417 193.333 120.429H217.576Z" fill="#324F7E"/>
<path opacity="0.6" d="M217.576 120.429V142.69C217.451 142.608 217.33 142.518 217.215 142.422L191.002 121.338C191.631 120.743 192.468 120.417 193.333 120.429H217.576Z" fill="white"/>
<path opacity="0.5" d="M217.564 120.429H212.238V161.339H217.564V120.429Z" fill="#324F7E"/>
</svg>
